<svg id="Layer_1" data-name="Layer 1" xmlns="http://www.w3.org/2000/svg" viewBox="0 0 550 550"><defs><style>.cls-1{fill:#0071bc;}.cls-2{fill:#fff;}.cls-3{fill:#f7931e;}.cls-4{fill:none;}</style></defs><path class="cls-1" d="M847.34085,447.51793c-9.85288,19.58779-13.631,46.07853-8.8812,74.00575,4.07267,23.94016,13.69971,44.80918,26.30767,59.86789a119.1504,119.1504,0,0,1-205.83341,10.76867c-.131-.20106-.26212-.40216-.37931-.6003a119.10747,119.10747,0,0,0,24.59913-156.51406,119.17373,119.17373,0,0,1,164.18712,12.472Z" transform="translate(-365 -237)"/><path class="cls-1" d="M816.03346,503.95013c8.09159-1.1243,17.60873-5.94379,26.33752-14.04228a66.513,66.513,0,0,0,16.30337-22.933,35.64064,35.64064,0,0,1,21.5064,3.65055c20.37027,10.738,26.13738,39.83238,12.87809,64.98568-.04837.09177-.09676.18356-.14621.26986-19.70291-7.22954-44.15351,4.3967-56.56976,27.688a33.93715,33.93715,0,0,1-4.17816-1.85552C813.72059,551.99085,807.25091,527.217,816.03346,503.95013Z" transform="translate(-365 -237)"/><path class="cls-1" d="M846.04452,401.01231l2.62835,28.01347a154.17946,154.17946,0,0,0-166.85923-9.97244,123.49729,123.49729,0,0,1,164.23088-18.041Z" transform="translate(-365 -237)"/><circle class="cls-2" cx="355.08535" cy="308.36685" r="5"/><path class="cls-2" d="M798.88794,463.66942c33.72469,51.743,23.89,117.92343-21.96,147.80717-22.9776,14.97617-50.63946,17.99835-76.76724,10.77443l-.01215-.0033c-.26926-.18316-.54365-.37419-.80584-.56195a88.97836,88.97836,0,0,0,35.50069-13.46618c45.85-29.88374,55.68467-96.06413,21.96-147.80717a123.457,123.457,0,0,0-33.62261-34.57227,99.19168,99.19168,0,0,1,41.25442,2.6885l.00513.00787A123.35981,123.35981,0,0,1,798.88794,463.66942Z" transform="translate(-365 -237)"/><path class="cls-2" d="M798.88794,463.66942c33.72469,51.743,23.89,117.92343-21.96,147.80717-22.9776,14.97617-50.63946,17.99835-76.76724,10.77443l-.01215-.0033c-.522-.14173-1.04206-.29587-1.56213-.45.25085-.029.50355-.07044.75629-.1119a88.97836,88.97836,0,0,0,35.50069-13.46618c45.85-29.88374,55.68467-96.06413,21.96-147.80717a123.457,123.457,0,0,0-33.62261-34.57227,99.19168,99.19168,0,0,1,41.25442,2.6885l.00513.00787A123.35981,123.35981,0,0,1,798.88794,463.66942Z" transform="translate(-365 -237)"/><path class="cls-1" d="M869.784,588.00152a95.00817,95.00817,0,0,1,1.72241,33.923l-23.38606-4.9303A139.2912,139.2912,0,0,0,869.784,588.00152Z" transform="translate(-365 -237)"/><path class="cls-3" d="M439.40642,443.2642c8.78682,20.08863,11.137,46.744,4.89434,74.37589C438.9484,541.327,428.2146,561.649,414.81619,576.0089a119.1504,119.1504,0,0,0,204.95816,21.80622c.14165-.19372.28333-.3875.411-.57906a119.10747,119.10747,0,0,1-16.159-157.60919,119.17366,119.17366,0,0,0-164.62,3.63733Z" transform="translate(-365 -237)"/><path class="cls-3" d="M467.63828,501.29617c-8.01954-1.55719-17.26415-6.88079-25.54546-15.43632a66.51306,66.51306,0,0,1-15.04836-23.77537,35.64065,35.64065,0,0,0-21.6714,2.49041c-20.91751,9.62861-28.23864,38.37135-16.3492,64.20037.04338.09423.08677.18849.13152.27733,20.0627-6.16108,43.85369,6.76136,55.0013,30.68582a33.93642,33.93642,0,0,0,4.27178-1.62848C467.36806,549.39177,475.15875,525.00111,467.63828,501.29617Z" transform="translate(-365 -237)"/><path class="cls-3" d="M443.1982,396.8953l-4.12886,27.83191a154.17948,154.17948,0,0,1,167.154-.99784A123.49728,123.49728,0,0,0,443.1982,396.8953Z" transform="translate(-365 -237)"/><circle class="cls-2" cx="196.2239" cy="310.80547" r="5"/><path class="cls-2" d="M486.9221,461.99428c-36.45459,49.85739-30.18791,116.47041,13.99116,148.77314,22.14024,16.18844,49.5999,20.69168,76.0779,14.88122l.01231-.00264c.2787-.16844.563-.34446.83485-.51787A88.97839,88.97839,0,0,1,543.112,609.775c-44.17907-32.30273-50.44575-98.91575-13.99116-148.77314a123.457,123.457,0,0,1,35.4306-32.71688,99.19184,99.19184,0,0,0-41.33926.46929l-.00555.00759A123.35969,123.35969,0,0,0,486.9221,461.99428Z" transform="translate(-365 -237)"/><path class="cls-2" d="M486.9221,461.99428c-36.45459,49.85739-30.18791,116.47041,13.99116,148.77314,22.14024,16.18844,49.5999,20.69168,76.0779,14.88122l.01231-.00264c.52881-.1135,1.05644-.23949,1.584-.36551-.24893-.04244-.499-.09739-.74919-.15236A88.97839,88.97839,0,0,1,543.112,609.775c-44.17907-32.30273-50.44575-98.91575-13.99116-148.77314a123.457,123.457,0,0,1,35.4306-32.71688,99.19184,99.19184,0,0,0-41.33926.46929l-.00555.00759A123.35969,123.35969,0,0,0,486.9221,461.99428Z" transform="translate(-365 -237)"/><path class="cls-3" d="M409.45175,582.33992a95.00849,95.00849,0,0,0-3.54156,33.78158l23.61707-3.66738A139.29251,139.29251,0,0,1,409.45175,582.33992Z" transform="translate(-365 -237)"/><rect class="cls-4" width="550" height="550"/></svg>