<svg id="Layer_1" data-name="Layer 1" xmlns="http://www.w3.org/2000/svg" viewBox="0 0 800 800"><defs><style>.cls-1{fill:#60a078;}.cls-2{fill:#00724e;}.cls-3{fill:#c69c6d;}.cls-4{opacity:0.1;}.cls-5{fill:#a67c52;}.cls-6{fill:#fdb6b5;}.cls-7{fill:#fdd5dc;}.cls-8{fill:#d90b8f;}.cls-9{fill:none;}</style></defs><path class="cls-1" d="M1531.3315,304.95572c-30.52224,67.30706-28.12771,136.63345.45049,188.65449.36932.69962.75162,1.371,1.14014,2.06075,63.286-21.95075,120.89864-72.4827,151.81652-140.67051,30.52872-67.32115,28.13389-136.61494-.444-188.66859-.37575-.68541-.75161-1.371-1.13391-2.04231C1619.86208,186.23607,1562.24938,236.7679,1531.3315,304.95572Z" transform="translate(-1055.32263 -115.87234)"/><path class="cls-2" d="M1531.3315,304.95572c-30.52224,67.30706-28.12771,136.63345.45049,188.65449l152.51264-327.27835c-.37575-.68541-.75161-1.371-1.13391-2.04231C1619.86208,186.23607,1562.24938,236.7679,1531.3315,304.95572Z" transform="translate(-1055.32263 -115.87234)"/><path class="cls-1" d="M1258.19962,358.837c25.01377,68.95284,77.26527,121.95256,137.44068,147.45658.79752.351,1.58467.673,2.39007,1.006,33.59548-50.89613,41.98047-121.14628,16.63643-190.9994-25.01893-68.96731-77.247-121.94136-137.44584-147.47106-.79224-.33645-1.58467-.673-2.37182-.9949C1241.24069,218.73376,1232.85558,288.98384,1258.19962,358.837Z" transform="translate(-1055.32263 -115.87234)"/><path class="cls-2" d="M1258.19962,358.837c25.01377,68.95284,77.26527,121.95256,137.44068,147.45658L1277.221,168.8291c-.79224-.33645-1.58467-.673-2.37182-.9949C1241.24069,218.73376,1232.85558,288.98384,1258.19962,358.837Z" transform="translate(-1055.32263 -115.87234)"/><path class="cls-1" d="M1387.38185,335.22405c5.76141,72.03347,42.32414,133.9236,94.00516,170.62458.68144.49905,1.36062.96778,2.05456,1.45093,46.40219-42.88827,73.48832-109.58772,67.64811-182.56242-5.76254-72.04857-42.30936-133.90909-94.00629-170.63969-.68022-.48385-1.36062-.96778-2.03979-1.43651C1408.62786,195.55,1381.54164,262.24935,1387.38185,335.22405Z" transform="translate(-1055.32263 -115.87234)"/><path class="cls-2" d="M1387.38185,335.22405c5.76141,72.03347,42.32414,133.9236,94.00516,170.62458l-24.30362-351.75118c-.68022-.48385-1.36062-.96778-2.03979-1.43651C1408.62786,195.55,1381.54164,262.24935,1387.38185,335.22405Z" transform="translate(-1055.32263 -115.87234)"/><path class="cls-1" d="M1579.09785,422.54781c-49.302,58.5777-67.33676,126.19371-54.94809,182.69478.15207.75664.325,1.48871.49856,2.24,67.69838-7.62664,138.2963-44.13782,188.23976-103.48285,49.31237-58.58994,67.3373-126.17446,54.95849-182.707-.16247-.74427-.325-1.48871-.49795-2.22078C1699.63923,326.69172,1629.04131,363.20278,1579.09785,422.54781Z" transform="translate(-1055.32263 -115.87234)"/><path class="cls-2" d="M1579.09785,422.54781c-49.302,58.5777-67.33676,126.19371-54.94809,182.69478l243.69681-283.94992c-.16247-.74427-.325-1.48871-.49795-2.22078C1699.63923,326.69172,1629.04131,363.20278,1579.09785,422.54781Z" transform="translate(-1055.32263 -115.87234)"/><path class="cls-1" d="M1336.02429,411.818c-50.53558-55.44736-120.123-87.9053-186.221-92.74608-.88114-.07605-1.74115-.12869-2.62255-.18589-11.16125,56.94459,8.79518,123.85594,59.994,180.02612,50.54612,55.459,120.10155,87.90067,186.23148,92.75775.87048.06435,1.74116.12869,2.60117.18133C1407.17942,534.89948,1387.22312,467.98815,1336.02429,411.818Z" transform="translate(-1055.32263 -115.87234)"/><path class="cls-2" d="M1336.02429,411.818c-50.53558-55.44736-120.123-87.9053-186.221-92.74608l243.60294,272.598c.87048.06435,1.74116.12869,2.60117.18133C1407.17942,534.89948,1387.22312,467.98815,1336.02429,411.818Z" transform="translate(-1055.32263 -115.87234)"/><path class="cls-1" d="M1468.25116,425.57962c-33.97989-64.032-92.7654-109.52943-155.70564-127.47726-.8359-.25046-1.65765-.47393-2.49895-.70611-26.41348,53.12793-25.29684,122.17979,9.13035,187.04743,33.98694,64.04547,92.7458,109.52062,155.71269,127.49071.82872.23695,1.65765.47392,2.4794.69739C1503.79487,559.49905,1502.67835,490.44725,1468.25116,425.57962Z" transform="translate(-1055.32263 -115.87234)"/><path class="cls-2" d="M1468.25116,425.57962c-33.97989-64.032-92.7654-109.52943-155.70564-127.47726l162.34409,313.832c.82872.23695,1.65765.47392,2.4794.69739C1503.79487,559.49905,1502.67835,490.44725,1468.25116,425.57962Z" transform="translate(-1055.32263 -115.87234)"/><path class="cls-1" d="M1472.7244,427.22707c-27.42279,68.27807-21.86172,137.47114,9.07207,188.49492.401.68671.81369,1.34473,1.23344,2.021,62.23432-24.05414,117.49343-76.47752,145.2713-145.64892,27.42862-68.29236,21.86874-137.45285-9.06625-188.50922-.40678-.6723-.81369-1.34473-1.22638-2.00276C1555.76142,305.6324,1500.50226,358.05567,1472.7244,427.22707Z" transform="translate(-1055.32263 -115.87234)"/><path class="cls-2" d="M1472.7244,427.22707c-27.42279,68.27807-21.86172,137.47114,9.07207,188.49492L1619.235,283.58482c-.40678-.6723-.81369-1.34473-1.22638-2.00276C1555.76142,305.6324,1500.50226,358.05567,1472.7244,427.22707Z" transform="translate(-1055.32263 -115.87234)"/><path class="cls-1" d="M1724.81922,585.49813c-57.87219,34.71333-127.25865,43.36352-187.06492,28.39879-.8-.18922-1.57569-.39315-2.37147-.59926,3.46024-54.04726,36.8808-107.9065,95.51138-143.071,57.88428-34.72066,127.23853-43.36565,187.077-28.40613.78776.19654,1.57569.39316,2.35141.59709C1816.87024,496.47434,1783.44981,550.33359,1724.81922,585.49813Z" transform="translate(-1055.32263 -115.87234)"/><path class="cls-2" d="M1724.81922,585.49813c-57.87219,34.71333-127.25865,43.36352-187.06492,28.39879l280.21692-172.07643c.78776.19654,1.57569.39316,2.35141.59709C1816.87024,496.47434,1783.44981,550.33359,1724.81922,585.49813Z" transform="translate(-1055.32263 -115.87234)"/><path class="cls-1" d="M1219.53562,582.81088C1280.54075,612.97,1350.38,616.31588,1408.33,596.88531c.77624-.249,1.5269-.51082,2.29728-.77632-8.855-53.529-47.47278-104.59827-109.277-135.14894-61.01788-30.1655-130.82456-33.50865-188.80713-14.08081-.76336.25536-1.5269.51081-2.27756.77263C1119.11377,501.191,1157.73141,552.26021,1219.53562,582.81088Z" transform="translate(-1055.32263 -115.87234)"/><path class="cls-2" d="M1219.53562,582.81088C1280.54075,612.97,1350.38,616.31588,1408.33,596.88531L1112.54315,446.87924c-.76336.25536-1.5269.51081-2.27756.77263C1119.11377,501.191,1157.73141,552.26021,1219.53562,582.81088Z" transform="translate(-1055.32263 -115.87234)"/><path class="cls-1" d="M1232.43556,577.35246c15.07432,56.16773,59.1788,99.92877,114.89578,121.61122.73662.29786,1.46707.57206,2.214.85556,40.13257-40.53149,58.12386-97.1525,42.8491-154.05365-15.0774-56.17952-59.16233-99.91939-114.89885-121.623-.73345-.286-1.46707-.57206-2.19752-.84626C1235.1522,463.83036,1217.1608,520.45132,1232.43556,577.35246Z" transform="translate(-1055.32263 -115.87234)"/><path class="cls-2" d="M1232.43556,577.35246c15.07432,56.16773,59.1788,99.92877,114.89578,121.61122l-69.8358-274.8211c-.73345-.286-1.46707-.57206-2.19752-.84626C1235.1522,463.83036,1217.1608,520.45132,1232.43556,577.35246Z" transform="translate(-1055.32263 -115.87234)"/><path class="cls-1" d="M1700.5806,587.33957c-19.83419,53.15877-67.472,92.10108-124.75637,108.80651-.75831.23169-1.50844.441-2.27571.658-36.42168-42.26074-49.43507-98.38622-29.3383-152.23885,19.83827-53.16994,67.45482-92.09327,124.76045-108.81768.75412-.22047,1.50844-.441,2.25856-.65025C1707.66388,477.36151,1720.67737,533.48694,1700.5806,587.33957Z" transform="translate(-1055.32263 -115.87234)"/><path class="cls-2" d="M1700.5806,587.33957c-19.83419,53.15877-67.472,92.10108-124.75637,108.80651l93.14644-260.39853c.75412-.22047,1.50844-.441,2.25856-.65025C1707.66388,477.36151,1720.67737,533.48694,1700.5806,587.33957Z" transform="translate(-1055.32263 -115.87234)"/><path class="cls-1" d="M1589.833,590.93784c-16.24074,51.16485-61.09239,89.5057-117.01046,106.90942-.73953.24043-1.47239.45931-2.22181.686-39.03612-39.32115-55.68584-92.46023-39.22944-144.293,16.24406-51.17559,61.07581-89.4978,117.01379-106.92016.7361-.22964,1.47239-.45931,2.20524-.67818C1589.63959,485.96605,1606.28941,539.10508,1589.833,590.93784Z" transform="translate(-1055.32263 -115.87234)"/><path class="cls-2" d="M1589.833,590.93784c-16.24074,51.16485-61.09239,89.5057-117.01046,106.90942l75.56254-250.52715c.7361-.22964,1.47239-.45931,2.20524-.67818C1589.63959,485.96605,1606.28941,539.10508,1589.833,590.93784Z" transform="translate(-1055.32263 -115.87234)"/><path class="cls-1" d="M1333.53408,580.06612c10.94927,49.08247,51.65581,87.63024,105.4966,107.05085.711.26652,1.41759.51236,2.13983.76646,42.81915-34.93482,64.78-84.09863,53.68421-133.822-10.95147-49.09278-51.64011-87.62191-105.49881-107.06115-.7087-.25616-1.41759-.51236-2.12416-.7582C1344.39924,481.179,1322.43826,530.34271,1333.53408,580.06612Z" transform="translate(-1055.32263 -115.87234)"/><path class="cls-2" d="M1333.53408,580.06612c10.94927,49.08247,51.65581,87.63024,105.4966,107.05085l-49.67477-240.11673c-.7087-.25616-1.41759-.51236-2.12416-.7582C1344.39924,481.179,1322.43826,530.34271,1333.53408,580.06612Z" transform="translate(-1055.32263 -115.87234)"/><path class="cls-3" d="M1666.897,646.45612l-3.55826,17.01115-49.16222,234.51036c-2.17345,10.32889-13.40607,17.89471-26.58147,17.89471H1350.88157c-13.156,0-24.408-7.56582-26.56221-17.89471l-49.16222-234.51036-3.55825-17.01115Z" transform="translate(-1055.32263 -115.87234)"/><path class="cls-3" d="M1710.01977,597.26983v41.15456c0,4.43353-4.28927,8.03173-9.617,8.03173H1238.074c-5.30862,0-9.617-3.5982-9.617-8.03173V597.26983c0-4.44961,4.30841-8.03173,9.617-8.03173h462.32879C1705.7305,589.2381,1710.01977,592.82022,1710.01977,597.26983Z" transform="translate(-1055.32263 -115.87234)"/><path class="cls-4" d="M1710.01977,597.26983v41.15456c0,4.43353-4.28927,8.03173-9.617,8.03173H1666.897l-3.55826,17.01115-49.16222,234.51036c-2.17345,10.32889-13.40607,17.89471-26.58147,17.89471H1469.248V589.2381h231.15477C1705.7305,589.2381,1710.01977,592.82022,1710.01977,597.26983Z" transform="translate(-1055.32263 -115.87234)"/><polygon class="cls-5" points="611.574 530.584 608.016 547.595 219.835 547.595 216.276 530.584 611.574 530.584"/><path class="cls-6" d="M1405.98837,430.50639a47.79247,47.79247,0,0,1-9.96047,38.70722,46.0485,46.0485,0,0,1-24.75393-33.5051,47.808,47.808,0,0,1,9.95973-38.71136A46.05663,46.05663,0,0,1,1405.98837,430.50639Z" transform="translate(-1055.32263 -115.87234)"/><path class="cls-6" d="M1423.58677,447.41073a42.8749,42.8749,0,0,1-36.92111,10.73322,47.43537,47.43537,0,0,1,14.971-39.34252,42.88876,42.88876,0,0,1,36.92414-10.736A47.44328,47.44328,0,0,1,1423.58677,447.41073Z" transform="translate(-1055.32263 -115.87234)"/><path class="cls-6" d="M1383.79279,476.87327a47.66932,47.66932,0,0,1,11.39786-38.27082,46.26242,46.26242,0,0,1,23.48426,34.4907,47.685,47.685,0,0,1-11.39728,38.275A46.27052,46.27052,0,0,1,1383.79279,476.87327Z" transform="translate(-1055.32263 -115.87234)"/><path class="cls-6" d="M1411.40962,475.3212a45.75164,45.75164,0,0,1-24.94246-30.4313,42.57,42.57,0,0,1,40.41057-2.49117,45.76612,45.76612,0,0,1,24.94615,30.433A42.57719,42.57719,0,0,1,1411.40962,475.3212Z" transform="translate(-1055.32263 -115.87234)"/><path class="cls-6" d="M1366.74114,463.7a44.40185,44.40185,0,0,1-31.139-23.36263,43.03564,43.03564,0,0,1,38.68823-12.461,44.41584,44.41584,0,0,1,31.14294,23.36337A43.04281,43.04281,0,0,1,1366.74114,463.7Z" transform="translate(-1055.32263 -115.87234)"/><path class="cls-6" d="M1364.53653,455.01525a43.10851,43.10851,0,0,1,36.07371-13.52351,47.70092,47.70092,0,0,1-12.18592,40.38061,43.12252,43.12252,0,0,1-36.07655,13.52651A47.70893,47.70893,0,0,1,1364.53653,455.01525Z" transform="translate(-1055.32263 -115.87234)"/><path class="cls-7" d="M1401.307,444.92757a18.86832,18.86832,0,0,1-3.8964,15.22235,18.1,18.1,0,0,1-9.68341-13.17651,18.87447,18.87447,0,0,1,3.89611-15.224A18.10316,18.10316,0,0,1,1401.307,444.92757Z" transform="translate(-1055.32263 -115.87234)"/><path class="cls-7" d="M1408.19126,451.57552a16.71159,16.71159,0,0,1-14.44305,4.221,18.70912,18.70912,0,0,1,5.85646-15.47218,16.717,16.717,0,0,1,14.44424-4.22213A18.71223,18.71223,0,0,1,1408.19126,451.57552Z" transform="translate(-1055.32263 -115.87234)"/><path class="cls-7" d="M1392.62438,463.16223a18.81417,18.81417,0,0,1,4.4587-15.05073,18.1939,18.1939,0,0,1,9.18673,13.56412,18.82037,18.82037,0,0,1-4.45847,15.05237A18.1971,18.1971,0,0,1,1392.62438,463.16223Z" transform="translate(-1055.32263 -115.87234)"/><path class="cls-7" d="M1403.42772,462.55184a17.97188,17.97188,0,0,1-9.75716-11.96768,16.57625,16.57625,0,0,1,15.80808-.9797,17.97753,17.97753,0,0,1,9.75861,11.96835A16.57906,16.57906,0,0,1,1403.42772,462.55184Z" transform="translate(-1055.32263 -115.87234)"/><path class="cls-7" d="M1385.954,457.98157a17.38006,17.38006,0,0,1-12.18116-9.1878,16.7799,16.7799,0,0,1,15.13433-4.90053,17.38551,17.38551,0,0,1,12.18271,9.18809A16.78269,16.78269,0,0,1,1385.954,457.98157Z" transform="translate(-1055.32263 -115.87234)"/><path class="cls-7" d="M1385.09159,454.56615a16.81378,16.81378,0,0,1,14.11156-5.31838,18.82588,18.82588,0,0,1-4.767,15.88044,16.81929,16.81929,0,0,1-14.11267,5.31955A18.829,18.829,0,0,1,1385.09159,454.56615Z" transform="translate(-1055.32263 -115.87234)"/><path class="cls-8" d="M1397.10874,451.18165a3.24587,3.24587,0,1,1-3.63415-4.73384A6.56719,6.56719,0,0,1,1397.10874,451.18165Z" transform="translate(-1055.32263 -115.87234)"/><path class="cls-8" d="M1399.69229,453.56972a6.46383,6.46383,0,0,1-5.42025,1.51628,6.56544,6.56544,0,0,1,2.19784-5.55791,6.4659,6.4659,0,0,1,5.4207-1.51667A6.56655,6.56655,0,0,1,1399.69229,453.56972Z" transform="translate(-1055.32263 -115.87234)"/><path class="cls-8" d="M1393.85028,457.73188a3.246,3.246,0,1,1,3.44773,4.87308A6.56465,6.56465,0,0,1,1393.85028,457.73188Z" transform="translate(-1055.32263 -115.87234)"/><path class="cls-8" d="M1397.90461,457.51262a6.52477,6.52477,0,0,1-3.66171-4.299,6.49809,6.49809,0,0,1,9.59478,3.94734A6.464,6.464,0,0,1,1397.90461,457.51262Z" transform="translate(-1055.32263 -115.87234)"/><path class="cls-8" d="M1391.347,455.87089a6.49634,6.49634,0,0,1-4.5714-3.30043,6.48634,6.48634,0,0,1,10.25166,1.54017A6.474,6.474,0,0,1,1391.347,455.87089Z" transform="translate(-1055.32263 -115.87234)"/><path class="cls-8" d="M1391.02334,454.644a6.46883,6.46883,0,0,1,5.29585-1.91047,6.5709,6.5709,0,0,1-1.789,5.70456,6.47092,6.47092,0,0,1-5.29627,1.91089A6.572,6.572,0,0,1,1391.02334,454.644Z" transform="translate(-1055.32263 -115.87234)"/><path class="cls-6" d="M1689.00717,152.63139a42.14076,42.14076,0,0,1-8.6254,33.87049,40.25431,40.25431,0,0,1-21.436-29.31841,42.15459,42.15459,0,0,1,8.62477-33.87411A40.26144,40.26144,0,0,1,1689.00717,152.63139Z" transform="translate(-1055.32263 -115.87234)"/><path class="cls-6" d="M1704.24676,167.42342a36.86615,36.86615,0,0,1-31.97235,9.392,41.7464,41.7464,0,0,1,12.96435-34.4264,36.878,36.878,0,0,1,31.975-9.39446A41.75339,41.75339,0,0,1,1704.24676,167.42342Z" transform="translate(-1055.32263 -115.87234)"/><path class="cls-6" d="M1669.7866,193.20441a42.00811,42.00811,0,0,1,9.87014-33.48862,40.48415,40.48415,0,0,1,20.33652,30.18086,42.02186,42.02186,0,0,1-9.86963,33.49227A40.49137,40.49137,0,0,1,1669.7866,193.20441Z" transform="translate(-1055.32263 -115.87234)"/><path class="cls-6" d="M1693.70178,191.84629a39.945,39.945,0,0,1-21.59927-26.62871,36.53218,36.53218,0,0,1,34.9941-2.17988,39.95755,39.95755,0,0,1,21.60246,26.6302A36.53836,36.53836,0,0,1,1693.70178,191.84629Z" transform="translate(-1055.32263 -115.87234)"/><path class="cls-6" d="M1655.02049,181.67719a38.49786,38.49786,0,0,1-26.96523-20.44331A37.02863,37.02863,0,0,1,1661.55787,150.33a38.50992,38.50992,0,0,1,26.96867,20.444A37.03477,37.03477,0,0,1,1655.02049,181.67719Z" transform="translate(-1055.32263 -115.87234)"/><path class="cls-6" d="M1653.11138,174.0777a37.11539,37.11539,0,0,1,31.23853-11.83365,42.03258,42.03258,0,0,1-10.55257,35.33478,37.12748,37.12748,0,0,1-31.241,11.83627A42.03965,42.03965,0,0,1,1653.11138,174.0777Z" transform="translate(-1055.32263 -115.87234)"/><path class="cls-7" d="M1684.95328,165.25055a16.63742,16.63742,0,0,1-3.37415,13.32021,15.82355,15.82355,0,0,1-8.38548-11.53,16.64292,16.64292,0,0,1,3.3739-13.32164A15.82637,15.82637,0,0,1,1684.95328,165.25055Z" transform="translate(-1055.32263 -115.87234)"/><path class="cls-7" d="M1690.9148,171.06779a14.37,14.37,0,0,1-12.50716,3.6936,16.466,16.466,0,0,1,5.07149-13.53884,14.37462,14.37462,0,0,1,12.50818-3.69454A16.46868,16.46868,0,0,1,1690.9148,171.06779Z" transform="translate(-1055.32263 -115.87234)"/><path class="cls-7" d="M1677.43445,181.20666a16.58026,16.58026,0,0,1,3.86106-13.17,15.92244,15.92244,0,0,1,7.95538,11.86919,16.58569,16.58569,0,0,1-3.86087,13.17147A15.92524,15.92524,0,0,1,1677.43445,181.20666Z" transform="translate(-1055.32263 -115.87234)"/><path class="cls-7" d="M1686.78975,180.67255a15.692,15.692,0,0,1-8.44935-10.47225,14.22542,14.22542,0,0,1,13.68923-.85727,15.697,15.697,0,0,1,8.4506,10.47282A14.22781,14.22781,0,0,1,1686.78975,180.67255Z" transform="translate(-1055.32263 -115.87234)"/><path class="cls-7" d="M1671.65814,176.67336a15.07006,15.07006,0,0,1-10.54844-8.03972,14.43818,14.43818,0,0,1,13.10578-4.28818,15.07481,15.07481,0,0,1,10.54978,8.04A14.44058,14.44058,0,0,1,1671.65814,176.67336Z" transform="translate(-1055.32263 -115.87234)"/><path class="cls-7" d="M1670.91132,173.68472a14.47682,14.47682,0,0,1,12.2201-4.65381,16.58928,16.58928,0,0,1-4.128,13.89607,14.48156,14.48156,0,0,1-12.22106,4.65484A16.59208,16.59208,0,0,1,1670.91132,173.68472Z" transform="translate(-1055.32263 -115.87234)"/><path class="cls-8" d="M1681.31773,170.72313a5.78953,5.78953,0,0,1-1.26626,4.78488,5.71136,5.71136,0,0,1-3.14694-4.1418,5.79137,5.79137,0,0,1,1.26617-4.78539A5.71231,5.71231,0,0,1,1681.31773,170.72313Z" transform="translate(-1055.32263 -115.87234)"/><path class="cls-8" d="M1683.555,172.8128a5.55682,5.55682,0,0,1-4.69374,1.32681,5.77643,5.77643,0,0,1,1.90325-4.86341,5.55863,5.55863,0,0,1,4.69413-1.32715A5.77742,5.77742,0,0,1,1683.555,172.8128Z" transform="translate(-1055.32263 -115.87234)"/><path class="cls-8" d="M1678.496,176.45487a5.78377,5.78377,0,0,1,1.449-4.73092,5.72141,5.72141,0,0,1,2.98553,4.26363,5.78568,5.78568,0,0,1-1.44892,4.73145A5.7224,5.7224,0,0,1,1678.496,176.45487Z" transform="translate(-1055.32263 -115.87234)"/><path class="cls-8" d="M1682.00693,176.263a5.69377,5.69377,0,0,1-3.17091-3.76183,5.54566,5.54566,0,0,1,5.13736-.308,5.69561,5.69561,0,0,1,3.17138,3.762A5.54663,5.54663,0,0,1,1682.00693,176.263Z" transform="translate(-1055.32263 -115.87234)"/><path class="cls-8" d="M1676.32827,174.82643a5.62982,5.62982,0,0,1-3.95867-2.888,5.56811,5.56811,0,0,1,4.9184-1.54039,5.63161,5.63161,0,0,1,3.95917,2.88811A5.569,5.569,0,0,1,1676.32827,174.82643Z" transform="translate(-1055.32263 -115.87234)"/><path class="cls-8" d="M1676.048,173.75285a5.568,5.568,0,0,1,4.586-1.67174,5.78883,5.78883,0,0,1-1.54919,4.99173,5.56978,5.56978,0,0,1-4.58637,1.67211A5.7898,5.7898,0,0,1,1676.048,173.75285Z" transform="translate(-1055.32263 -115.87234)"/><path class="cls-6" d="M1675.73137,423.931a37.43579,37.43579,0,0,1-7.16843,29.24671c-8.97672-4.6358-15.86164-13.78692-17.81508-25.31605a37.44818,37.44818,0,0,1,7.16789-29.24984C1666.89247,403.24762,1673.77792,412.40189,1675.73137,423.931Z" transform="translate(-1055.32263 -115.87234)"/><path class="cls-6" d="M1688.39672,436.70372a29.868,29.868,0,0,1-26.57166,8.10989,36.83556,36.83556,0,0,1,10.77445-29.72673,29.87766,29.87766,0,0,1,26.57383-8.112A36.84165,36.84165,0,0,1,1688.39672,436.70372Z" transform="translate(-1055.32263 -115.87234)"/><path class="cls-6" d="M1659.75749,458.96526a37.24194,37.24194,0,0,1,8.2029-28.917c8.805,5.01724,15.35931,14.45665,16.90132,26.06076a37.25436,37.25436,0,0,1-8.20248,28.92013C1667.85419,480.01193,1661.2995,470.56935,1659.75749,458.96526Z" transform="translate(-1055.32263 -115.87234)"/><path class="cls-6" d="M1679.633,457.79253c-9.20068-4.45329-15.53425-13.09959-17.95078-22.99353a29.37764,29.37764,0,0,1,29.083-1.88229c9.20067,4.4533,15.53423,13.09961,17.95342,22.99481A29.38251,29.38251,0,0,1,1679.633,457.79253Z" transform="translate(-1055.32263 -115.87234)"/><path class="cls-6" d="M1647.48563,449.01166c-9.90055-1.92562-17.923-8.67219-22.41032-17.65253,7.10769-7.59927,17.32893-11.46042,27.84343-9.41539,9.90055,1.92562,17.923,8.6722,22.41318,17.65308C1668.22422,447.19609,1658.00012,451.05669,1647.48563,449.01166Z" transform="translate(-1055.32263 -115.87234)"/><path class="cls-6" d="M1645.899,442.4496a30.21857,30.21857,0,0,1,25.96179-10.2182,37.25327,37.25327,0,0,1-8.77006,30.5111,30.2285,30.2285,0,0,1-25.96383,10.22047A37.25945,37.25945,0,0,1,1645.899,442.4496Z" transform="translate(-1055.32263 -115.87234)"/><path class="cls-7" d="M1672.36225,434.82747a14.7812,14.7812,0,0,1-2.80419,11.50182,13.632,13.632,0,0,1-6.969-9.956,14.78606,14.78606,0,0,1,2.804-11.50305A13.63451,13.63451,0,0,1,1672.36225,434.82747Z" transform="translate(-1055.32263 -115.87234)"/><path class="cls-7" d="M1677.31677,439.85058a11.64343,11.64343,0,0,1-10.39448,3.18937,14.53094,14.53094,0,0,1,4.21481-11.6906,11.64722,11.64722,0,0,1,10.39534-3.19019A14.53333,14.53333,0,0,1,1677.31677,439.85058Z" transform="translate(-1055.32263 -115.87234)"/><path class="cls-7" d="M1666.11348,448.60536a14.70063,14.70063,0,0,1,3.20886-11.37215,13.76983,13.76983,0,0,1,6.61158,10.24889,14.70553,14.70553,0,0,1-3.2087,11.37338A13.77232,13.77232,0,0,1,1666.11348,448.60536Z" transform="translate(-1055.32263 -115.87234)"/><path class="cls-7" d="M1673.88851,448.14416a13.45809,13.45809,0,0,1-7.02211-9.04264,11.44008,11.44008,0,0,1,11.37688-.74025,13.46229,13.46229,0,0,1,7.02314,9.04315A11.442,11.442,0,0,1,1673.88851,448.14416Z" transform="translate(-1055.32263 -115.87234)"/><path class="cls-7" d="M1661.31289,444.69091a12.59876,12.59876,0,0,1-8.76662-6.94219,11.72785,11.72785,0,0,1,10.892-3.70278,12.60268,12.60268,0,0,1,8.76774,6.94241A11.72972,11.72972,0,0,1,1661.31289,444.69091Z" transform="translate(-1055.32263 -115.87234)"/><path class="cls-7" d="M1660.69222,442.11026a11.78839,11.78839,0,0,1,10.15591-4.0185,14.70451,14.70451,0,0,1-3.43073,11.99907,11.79227,11.79227,0,0,1-10.15671,4.01939A14.707,14.707,0,0,1,1660.69222,442.11026Z" transform="translate(-1055.32263 -115.87234)"/><path class="cls-8" d="M1669.34081,439.553a5.13979,5.13979,0,0,1-1.05237,4.13167,4.91049,4.91049,0,0,1-2.61537-3.57639,5.14149,5.14149,0,0,1,1.05229-4.13212A4.91137,4.91137,0,0,1,1669.34081,439.553Z" transform="translate(-1055.32263 -115.87234)"/><path class="cls-8" d="M1671.20016,441.35737a4.49854,4.49854,0,0,1-3.90088,1.14568,5.09184,5.09184,0,0,1,1.58175-4.19948,4.5,4.5,0,0,1,3.90121-1.146A5.0927,5.0927,0,0,1,1671.20016,441.35737Z" transform="translate(-1055.32263 -115.87234)"/><path class="cls-8" d="M1666.99574,444.50225a5.12368,5.12368,0,0,1,1.20424-4.08509,4.93841,4.93841,0,0,1,2.48122,3.6816,5.12532,5.12532,0,0,1-1.20417,4.08553A4.93929,4.93929,0,0,1,1666.99574,444.50225Z" transform="translate(-1055.32263 -115.87234)"/><path class="cls-8" d="M1669.91359,444.33658a4.87284,4.87284,0,0,1-2.63529-3.24828,4.458,4.458,0,0,1,4.26957-.26592,4.87443,4.87443,0,0,1,2.63568,3.24847A4.45871,4.45871,0,0,1,1669.91359,444.33658Z" transform="translate(-1055.32263 -115.87234)"/><path class="cls-8" d="M1665.19416,443.09611a4.69691,4.69691,0,0,1-3.29-2.49376,4.51832,4.51832,0,0,1,4.08759-1.33011,4.69842,4.69842,0,0,1,3.2904,2.49384A4.51908,4.51908,0,0,1,1665.19416,443.09611Z" transform="translate(-1055.32263 -115.87234)"/><path class="cls-8" d="M1664.96123,442.16909a4.52889,4.52889,0,0,1,3.81136-1.44352,5.12666,5.12666,0,0,1-1.2875,4.31029,4.53034,4.53034,0,0,1-3.81166,1.44385A5.12751,5.12751,0,0,1,1664.96123,442.16909Z" transform="translate(-1055.32263 -115.87234)"/><path class="cls-6" d="M1291.55869,156.63284a55.23681,55.23681,0,0,1-13.01709,47.0833,56.60059,56.60059,0,0,1-32.3503-40.75546,55.25444,55.25444,0,0,1,13.01613-47.08834A56.61,56.61,0,0,1,1291.55869,156.63284Z" transform="translate(-1055.32263 -115.87234)"/><path class="cls-6" d="M1314.55761,177.19521a58.91535,58.91535,0,0,1-48.25128,13.05584,55.58507,55.58507,0,0,1,19.56523-47.85607,58.93424,58.93424,0,0,1,48.25525-13.05921A55.59469,55.59469,0,0,1,1314.55761,177.19521Z" transform="translate(-1055.32263 -115.87234)"/><path class="cls-6" d="M1262.55184,213.03332a55.32562,55.32562,0,0,1,14.89558-46.55247,56.44255,56.44255,0,0,1,30.691,41.95435,55.34326,55.34326,0,0,1-14.89483,46.55754A56.452,56.452,0,0,1,1262.55184,213.03332Z" transform="translate(-1055.32263 -115.87234)"/><path class="cls-6" d="M1298.64359,211.14539a56.73055,56.73055,0,0,1-32.59668-37.01651,59.24573,59.24573,0,0,1,52.81157-3.03025,56.749,56.749,0,0,1,32.6015,37.01859A59.25592,59.25592,0,0,1,1298.64359,211.14539Z" transform="translate(-1055.32263 -115.87234)"/><path class="cls-6" d="M1240.26746,197.00935a57.74363,57.74363,0,0,1-40.69476-28.41821,58.88305,58.88305,0,0,1,50.56069-15.15752,57.76243,57.76243,0,0,1,40.69994,28.41911A58.8932,58.8932,0,0,1,1240.26746,197.00935Z" transform="translate(-1055.32263 -115.87234)"/><path class="cls-6" d="M1237.38631,186.44532a58.73428,58.73428,0,0,1,47.14384-16.44995,55.393,55.393,0,0,1-15.92548,49.11881,58.75306,58.75306,0,0,1-47.14754,16.45359A55.40252,55.40252,0,0,1,1237.38631,186.44532Z" transform="translate(-1055.32263 -115.87234)"/><path class="cls-7" d="M1285.44073,174.1747a21.8034,21.8034,0,0,1-5.09212,18.5164,22.23727,22.23727,0,0,1-12.655-16.02785,21.81036,21.81036,0,0,1,5.09173-18.51838A22.241,22.241,0,0,1,1285.44073,174.1747Z" transform="translate(-1055.32263 -115.87234)"/><path class="cls-7" d="M1294.4376,182.26125a22.95956,22.95956,0,0,1-18.87526,5.13445,21.91761,21.91761,0,0,1,7.65366-18.8203,22.9669,22.9669,0,0,1,18.87682-5.13578A21.92137,21.92137,0,0,1,1294.4376,182.26125Z" transform="translate(-1055.32263 -115.87234)"/><path class="cls-7" d="M1274.09363,196.35526a21.83142,21.83142,0,0,1,5.827-18.30764A22.18755,22.18755,0,0,1,1291.9265,194.547a21.83839,21.83839,0,0,1-5.82666,18.30964A22.19128,22.19128,0,0,1,1274.09363,196.35526Z" transform="translate(-1055.32263 -115.87234)"/><path class="cls-7" d="M1288.21225,195.6128a22.27366,22.27366,0,0,1-12.75139-14.55745,23.06764,23.06764,0,0,1,20.65919-1.1917,22.28089,22.28089,0,0,1,12.75327,14.55826A23.07157,23.07157,0,0,1,1288.21225,195.6128Z" transform="translate(-1055.32263 -115.87234)"/><path class="cls-7" d="M1265.37628,190.05353a22.592,22.592,0,0,1-15.91926-11.176,22.954,22.954,0,0,1,19.77868-5.961A22.59932,22.59932,0,0,1,1285.157,184.0929,22.95791,22.95791,0,0,1,1265.37628,190.05353Z" transform="translate(-1055.32263 -115.87234)"/><path class="cls-7" d="M1264.24921,185.899a22.90276,22.90276,0,0,1,18.44205-6.46925,21.85709,21.85709,0,0,1-6.22984,19.3169,22.91013,22.91013,0,0,1-18.4435,6.47068A21.86081,21.86081,0,0,1,1264.24921,185.899Z" transform="translate(-1055.32263 -115.87234)"/><path class="cls-8" d="M1279.95412,181.78214a7.60021,7.60021,0,0,1-1.911,6.65144,8.06173,8.06173,0,0,1-4.74923-5.75751,7.60257,7.60257,0,0,1,1.91085-6.65215A8.063,8.063,0,0,1,1279.95412,181.78214Z" transform="translate(-1055.32263 -115.87234)"/><path class="cls-8" d="M1283.33051,184.687a8.89376,8.89376,0,0,1-7.0836,1.84439,7.70878,7.70878,0,0,1,2.8723-6.76061,8.89662,8.89662,0,0,1,7.08418-1.84487A7.71013,7.71013,0,0,1,1283.33051,184.687Z" transform="translate(-1055.32263 -115.87234)"/><path class="cls-8" d="M1275.69573,189.74982a7.63082,7.63082,0,0,1,2.18677-6.57646,8.00656,8.00656,0,0,1,4.50563,5.92688,7.63323,7.63323,0,0,1-2.18666,6.57717A8.00784,8.00784,0,0,1,1275.69573,189.74982Z" transform="translate(-1055.32263 -115.87234)"/><path class="cls-8" d="M1280.99423,189.48311a8.11927,8.11927,0,0,1-4.7854-5.22931,9,9,0,0,1,7.75307-.42808,8.122,8.122,0,0,1,4.78611,5.2296A9.00155,9.00155,0,0,1,1280.99423,189.48311Z" transform="translate(-1055.32263 -115.87234)"/><path class="cls-8" d="M1272.42424,187.48612a8.47623,8.47623,0,0,1-5.97425-4.01464,8.86981,8.86981,0,0,1,7.42263-2.14129,8.479,8.479,0,0,1,5.975,4.01475A8.87137,8.87137,0,0,1,1272.42424,187.48612Z" transform="translate(-1055.32263 -115.87234)"/><path class="cls-8" d="M1272.00127,185.99374a8.82892,8.82892,0,0,1,6.921-2.32388,7.64251,7.64251,0,0,1-2.338,6.939,8.83173,8.83173,0,0,1-6.92156,2.32439A7.64379,7.64379,0,0,1,1272.00127,185.99374Z" transform="translate(-1055.32263 -115.87234)"/><path class="cls-6" d="M1114.47835,439.16738a19.68251,19.68251,0,0,1-3.41832,14.74133,17.46443,17.46443,0,0,1-8.49525-12.76014,19.68917,19.68917,0,0,1,3.41806-14.74291A17.46776,17.46776,0,0,1,1114.47835,439.16738Z" transform="translate(-1055.32263 -115.87234)"/><path class="cls-6" d="M1120.51791,445.60526a13.7459,13.7459,0,0,1-12.67088,4.08766,19.18951,19.18951,0,0,1,5.13787-14.98328,13.75044,13.75044,0,0,1,12.67193-4.08871A19.1926,19.1926,0,0,1,1120.51791,445.60526Z" transform="translate(-1055.32263 -115.87234)"/><path class="cls-6" d="M1106.86109,456.82584a19.52664,19.52664,0,0,1,3.91161-14.57514,17.72742,17.72742,0,0,1,8.05952,13.13551,19.5333,19.5333,0,0,1-3.91141,14.57672A17.73076,17.73076,0,0,1,1106.86109,456.82584Z" transform="translate(-1055.32263 -115.87234)"/><path class="cls-6" d="M1116.33886,456.23474a17.1431,17.1431,0,0,1-8.56-11.58952,13.36535,13.36535,0,0,1,13.86843-.94874,17.14831,17.14831,0,0,1,8.56123,11.59017A13.36756,13.36756,0,0,1,1116.33886,456.23474Z" transform="translate(-1055.32263 -115.87234)"/><path class="cls-6" d="M1101.00916,451.80888a15.52023,15.52023,0,0,1-10.68653-8.89747A13.89306,13.89306,0,0,1,1103.6,438.16574a15.52487,15.52487,0,0,1,10.68789,8.89775A13.89523,13.89523,0,0,1,1101.00916,451.80888Z" transform="translate(-1055.32263 -115.87234)"/><path class="cls-6" d="M1100.25257,448.50138a14.01293,14.01293,0,0,1,12.38007-5.15032,19.52508,19.52508,0,0,1-4.18207,15.37864,14.01759,14.01759,0,0,1-12.381,5.15146A19.52828,19.52828,0,0,1,1100.25257,448.50138Z" transform="translate(-1055.32263 -115.87234)"/><path class="cls-7" d="M1112.87176,444.65957a7.77238,7.77238,0,0,1-1.3372,5.79731,6.86907,6.86907,0,0,1-3.32323-5.01817,7.775,7.775,0,0,1,1.3371-5.79793A6.87043,6.87043,0,0,1,1112.87176,444.65957Z" transform="translate(-1055.32263 -115.87234)"/><path class="cls-7" d="M1115.23436,447.19139a5.35946,5.35946,0,0,1-4.95669,1.60755,7.57134,7.57134,0,0,1,2.00987-5.89246,5.36124,5.36124,0,0,1,4.95709-1.608A7.57252,7.57252,0,0,1,1115.23436,447.19139Z" transform="translate(-1055.32263 -115.87234)"/><path class="cls-7" d="M1109.892,451.60409a7.70887,7.70887,0,0,1,1.53017-5.73194,6.9761,6.9761,0,0,1,3.15278,5.16578,7.71148,7.71148,0,0,1-1.5301,5.73257A6.97737,6.97737,0,0,1,1109.892,451.60409Z" transform="translate(-1055.32263 -115.87234)"/><path class="cls-7" d="M1113.59957,451.37164a6.73871,6.73871,0,0,1-3.34855-4.5578,5.20507,5.20507,0,0,1,5.42515-.37311,6.7407,6.7407,0,0,1,3.349,4.55805A5.20594,5.20594,0,0,1,1113.59957,451.37164Z" transform="translate(-1055.32263 -115.87234)"/><path class="cls-7" d="M1107.60279,449.63108a6.07921,6.07921,0,0,1-4.18043-3.4991,5.41885,5.41885,0,0,1,5.19392-1.86632,6.081,6.081,0,0,1,4.181,3.49921A5.41971,5.41971,0,0,1,1107.60279,449.63108Z" transform="translate(-1055.32263 -115.87234)"/><path class="cls-7" d="M1107.30682,448.33035a5.46766,5.46766,0,0,1,4.84292-2.02546,7.708,7.708,0,0,1-1.636,6.04793,5.46946,5.46946,0,0,1-4.8433,2.02591A7.70921,7.70921,0,0,1,1107.30682,448.33035Z" transform="translate(-1055.32263 -115.87234)"/><path class="cls-8" d="M1111.431,447.04139a2.6999,2.6999,0,0,1-.50183,2.0825,2.4673,2.4673,0,0,1-1.24715-1.80262,2.70088,2.70088,0,0,1,.50179-2.08273A2.46777,2.46777,0,0,1,1111.431,447.04139Z" transform="translate(-1055.32263 -115.87234)"/><path class="cls-8" d="M1112.31761,447.95087a2.06794,2.06794,0,0,1-1.86017.57746,2.649,2.649,0,0,1,.75428-2.11669,2.0686,2.0686,0,0,1,1.86032-.57761A2.64943,2.64943,0,0,1,1112.31761,447.95087Z" transform="translate(-1055.32263 -115.87234)"/><path class="cls-8" d="M1110.3127,449.536a2.68366,2.68366,0,0,1,.57425-2.059,2.49513,2.49513,0,0,1,1.18319,1.85565,2.6845,2.6845,0,0,1-.57422,2.05924A2.49558,2.49558,0,0,1,1110.3127,449.536Z" transform="translate(-1055.32263 -115.87234)"/><path class="cls-8" d="M1111.7041,449.45249a2.43256,2.43256,0,0,1-1.25666-1.63725,2.027,2.027,0,0,1,2.036-.134,2.43332,2.43332,0,0,1,1.25684,1.63734A2.02733,2.02733,0,0,1,1111.7041,449.45249Z" transform="translate(-1055.32263 -115.87234)"/><path class="cls-8" d="M1109.4536,448.82725a2.25954,2.25954,0,0,1-1.56885-1.25694,2.08453,2.08453,0,0,1,1.9492-.67042,2.26021,2.26021,0,0,1,1.56905,1.257A2.0849,2.0849,0,0,1,1109.4536,448.82725Z" transform="translate(-1055.32263 -115.87234)"/><path class="cls-8" d="M1109.34253,448.36a2.09693,2.09693,0,0,1,1.81747-.72758,2.6841,2.6841,0,0,1-.614,2.17253,2.09762,2.09762,0,0,1-1.81762.72774A2.68458,2.68458,0,0,1,1109.34253,448.36Z" transform="translate(-1055.32263 -115.87234)"/><rect class="cls-9" width="800" height="800"/></svg>