<svg id="Layer_1" data-name="Layer 1" xmlns="http://www.w3.org/2000/svg" viewBox="0 0 500 500"><defs><style>.cls-1{fill:#fbb03b;}.cls-2{fill:#fbc73b;}.cls-3{fill:#fff;}.cls-4{fill:none;}</style></defs><path class="cls-1" d="M590.68375,601.80358c-14.81879,26.84638-2.16486,70.99-23.41174,60.02611s-100.61938-79.88422-85.80059-106.73061,18.88912,5.87137,40.136,16.83525S605.50254,574.95719,590.68375,601.80358Z" transform="translate(-390 -262)"/><path class="cls-1" d="M692.79491,389.57968c-.19686-40.6234,45.98527-84.50409,11.77246-84.81231s-181.20683,31.29786-181.01,71.92127,27.75708,4.81453,61.96989,5.12275S692.99177,430.20309,692.79491,389.57968Z" transform="translate(-390 -262)"/><path class="cls-1" d="M830.30041,578.85448c25.42668-13.38153,132.6671-79.299-35.91244-69.5193-33.42043,1.93881-65.013-1.69765-76.11445,24.17544s4.97708,56.99794,35.91245,69.5193S774.91663,608.00183,830.30041,578.85448Z" transform="translate(-390 -262)"/><path class="cls-1" d="M790.80365,644.53571c.5694,27.95494-5.55518,150.558-80.334,4.35156-14.82468-28.985-33.75791-53.67332-15.98975-75.80906s53.7349-24.084,80.334-4.35155S789.56341,583.64494,790.80365,644.53571Z" transform="translate(-390 -262)"/><path class="cls-2" d="M730.15164,561.20115c-27.61614,45.92432-28.33309-30.192-131.8772,37.2549-52.66736,34.30666-230.32505-106.21237-202.70891-152.13669s286.98943-159.70677,302.7158-14.17C714.95681,586.46943,757.76778,515.27682,730.15164,561.20115Z" transform="translate(-390 -262)"/><path class="cls-1" d="M521.51887,375.73532l5.07344,55.57629a72.52292,72.52292,0,0,1-6.3542,37.86355L489.095,535.124l31.73217-159.23974Z" transform="translate(-390 -262)"/><ellipse cx="468.21985" cy="428.91977" rx="16.50534" ry="17.2707" transform="translate(-418.82987 562.06983) rotate(-80.97609)"/><ellipse class="cls-3" cx="473.27009" cy="429.7183" rx="9.77527" ry="10.22856" transform="translate(-415.3604 567.73084) rotate(-80.97609)"/><rect class="cls-4" width="500" height="500"/></svg>