<svg id="Layer_1" data-name="Layer 1" xmlns="http://www.w3.org/2000/svg" xmlns:xlink="http://www.w3.org/1999/xlink" viewBox="0 0 950 950"><defs><style>.cls-1{fill:#b9272d;}.cls-2{fill:#9d272d;}.cls-3{fill:url(#radial-gradient);}.cls-4{fill:#f15a24;}.cls-11,.cls-5{fill:#fff;}.cls-5{stroke:#000;}.cls-14,.cls-5{stroke-miterlimit:10;}.cls-6{fill:url(#radial-gradient-2);}.cls-7{fill:url(#radial-gradient-3);}.cls-8{fill:url(#radial-gradient-4);}.cls-9{fill:#f7931e;}.cls-10{fill:url(#radial-gradient-5);}.cls-12{fill:#0071bc;}.cls-13{fill:#af272d;}.cls-14,.cls-16{fill:none;}.cls-14{stroke:#f2f2f2;}.cls-15{fill:#ff92a5;opacity:0.6;}</style><radialGradient id="radial-gradient" cx="697.37099" cy="1337.88283" fx="956.7964513646245" fy="1337.8828330595534" r="262.04592" gradientTransform="translate(-81.5978 546.40185) scale(0.80313 0.24981)" gradientUnits="userSpaceOnUse"><stop offset="0.8838" stop-color="#cafdff"/><stop offset="1" stop-color="#fff"/></radialGradient><radialGradient id="radial-gradient-2" cx="463.00007" cy="1006.92794" fx="595.172040907729" fy="971.9081132442278" r="136.73265" gradientTransform="translate(107.40465 278.72671) scale(0.6801 0.62337)" gradientUnits="userSpaceOnUse"><stop offset="0"/><stop offset="0" stop-color="#171717"/><stop offset="1" stop-color="#1f1f1f"/></radialGradient><radialGradient id="radial-gradient-3" cx="982.91488" cy="990.67498" fx="1115.0868484634802" fy="955.6551530709942" r="136.73265" gradientTransform="matrix(-0.6801, 0, 0, 0.62337, 1542.18798, 278.72671)" xlink:href="#radial-gradient-2"/><radialGradient id="radial-gradient-4" cx="793.31736" cy="649.15902" fx="497.0143220506234" r="296.3241" gradientTransform="translate(107.40465 278.72671) scale(0.6801 0.62337)" gradientUnits="userSpaceOnUse"><stop offset="0"/><stop offset="0.00503" stop-color="#171717"/><stop offset="1" stop-color="#1f1f1f"/></radialGradient><radialGradient id="radial-gradient-5" cx="807.61611" cy="1087.7315" fx="1158.2994449308096" fy="994.8156560680266" r="362.78389" xlink:href="#radial-gradient-2"/></defs><path class="cls-1" d="M745.24847,477.0656c-13.04911,29.57052-51.02526,43.019-84.82211,30.03812s-126.1213-17.985-113.0722-47.55549,126.53033-72.50978,160.32718-59.52885S758.29757,447.49507,745.24847,477.0656Z" transform="translate(-173 -389)"/><path class="cls-2" d="M473.01277,844.91685s-4.57861,1.57961-5.41958-6.5927-1.303-8.21175,2.51925-11.60739,6.67871-4.02757,12.05559-4.22545,16.50929,5.13094,26.80147,9.51231l10.29217,4.38137" transform="translate(-173 -389)"/><ellipse class="cls-3" cx="478.47902" cy="880.62132" rx="220.47348" ry="69.37868"/><path class="cls-4" d="M610.81248,1278.78606c-6.24443,17.78083-24.885-9.22645-48.93074-16.32109s-52.3791,2.28471-46.13467-15.49612,52.52026-56.91192,76.56605-49.81728S617.0569,1261.00523,610.81248,1278.78606Z" transform="translate(-173 -389)"/><path class="cls-4" d="M554.29445,1248.33946l20.48652,6.40938c3.92213,1.22706,6.23576,4.23424,4.94542,6.49515a36.68939,36.68939,0,0,1-6.25928,8.0607,40.387,40.387,0,0,1-9.19833,6.69919c-3.799,2.0278-10.60314-.21833-11.82243-3.91076l-6.52583-19.76241C544.79877,1248.93368,549.31439,1246.78141,554.29445,1248.33946Z" transform="translate(-173 -389)"/><path class="cls-4" d="M720.98737,1277.37328c6.24443,17.78083,24.88495-9.22645,48.93074-16.32109s52.3791,2.28471,46.13467-15.49612-52.52026-56.91193-76.56605-49.81729S714.74295,1259.59245,720.98737,1277.37328Z" transform="translate(-173 -389)"/><path class="cls-4" d="M777.50541,1246.92668l-20.48653,6.40937c-3.92213,1.22707-6.23576,4.23425-4.94542,6.49516a36.6891,36.6891,0,0,0,6.25928,8.06069,40.38691,40.38691,0,0,0,9.19833,6.69919c3.799,2.02781,10.60315-.21832,11.82244-3.91075l6.52583-19.76242C787.00108,1247.5209,782.48546,1245.36863,777.50541,1246.92668Z" transform="translate(-173 -389)"/><path class="cls-5" d="M729.66471,637.19982" transform="translate(-173 -389)"/><path class="cls-6" d="M496.57946,806.95078s-211.14849,237.33715-130.023,193.53674l81.12547-43.80042Z" transform="translate(-173 -389)"/><path class="cls-7" d="M848.31809,946.55548,799.42054,796.81916s211.14849,237.33715,130.023,193.53674" transform="translate(-173 -389)"/><path class="cls-8" d="M612.96878,499.75617c126.36564-43.09766,254.67958,202.92091,227.382,257.37031S680.94265,902.79564,583.56083,861.779,429.36453,743.37175,456.66216,688.92234,512.36782,534.06666,612.96878,499.75617Z" transform="translate(-173 -389)"/><ellipse class="cls-9" cx="406.3719" cy="824.2506" rx="26.67139" ry="11.71407"/><ellipse class="cls-9" cx="749.07542" cy="1207.95624" rx="23.0532" ry="11.2327" transform="translate(-224.57435 -355.45093) rotate(-2.48034)"/><path class="cls-10" d="M447.18062,985.76744c0-141.25891,87.14429-284.75256,210.47424-284.75256s208.48883,188.213,208.48883,329.47193-85.15887,182.07181-208.48883,182.07181C448.79322,1212.55862,447.18062,1127.02634,447.18062,985.76744Z" transform="translate(-173 -389)"/><path class="cls-11" d="M832.19443,1005.82229c0,105.83854-52.5666,168.84829-151.53184,168.84829-203.2451,0-199.6372-69.225-199.6372-175.06356S561.25257,807.9694,660.21781,807.9694,832.19443,899.98376,832.19443,1005.82229Z" transform="translate(-173 -389)"/><ellipse class="cls-11" cx="414.42888" cy="278.65526" rx="52.78712" ry="117.64996"/><ellipse class="cls-11" cx="535.56143" cy="277.12734" rx="52.78712" ry="117.64996"/><path class="cls-11" d="M806.91218,709.70662c0,98.60806-70.652,178.54568-157.80572,178.54568S491.30075,805.48,491.30075,706.87192,564.85361,719.6561,652.0073,719.6561C734.67717,719.6561,806.91218,611.09856,806.91218,709.70662Z" transform="translate(-173 -389)"/><ellipse class="cls-12" cx="416.92932" cy="272.54358" rx="33.33924" ry="30.55843"/><ellipse cx="419.68733" cy="276.98145" rx="19.46815" ry="17.97165"/><ellipse class="cls-11" cx="431.79306" cy="262.80308" rx="8.47372" ry="7.63961"/><ellipse class="cls-11" cx="408.59451" cy="265.66793" rx="10.83525" ry="10.18614"/><ellipse class="cls-12" cx="535.42252" cy="269.48773" rx="33.33924" ry="30.55843"/><ellipse cx="532.66451" cy="273.9256" rx="19.46815" ry="17.97165"/><ellipse class="cls-11" cx="520.55878" cy="259.74723" rx="8.47372" ry="7.63961"/><ellipse class="cls-11" cx="543.75733" cy="262.61209" rx="10.83525" ry="10.18614"/><path class="cls-4" d="M610.33284,710.821c.16339-13.77112,17.61321,10.933,39.49763,11.15119s39.91627-24.13235,39.75288-10.36122-18.46014,60.449-40.34457,60.23087S610.16944,724.59213,610.33284,710.821Z" transform="translate(-173 -389)"/><path class="cls-9" d="M610.11725,709.044c-.01168-7.91463,17.751,6.15988,39.6367,6.13276s39.60675-14.14559,39.61844-6.231-17.69043,34.86525-39.57613,34.89237S610.12894,716.95864,610.11725,709.044Z" transform="translate(-173 -389)"/><path class="cls-2" d="M498.96105,804.915c180.27262,61.9679,281.085,9.89333,302.07715-3.04361,2.43759-1.50223,8.73189-3.95305,7.48549,1.13309L844.28351,844.24c5.63313-.02769,1.5156,7.37561-1.99815,8.96554-115.14475,52.1015-167.46044,52.11679-180.86808,50.88a56.09536,56.09536,0,0,0-7.16638-.20674c-6.57748.23553-23.36771-.21635-59.344-6.45931-49.94386-8.66674-63.94775-16.46847-77.9606-26.72232s-40.51433-23.41-46.01714-26.82527v0a5.70634,5.70634,0,0,1-1.4593-8.44141l23.058-28.66156A5.83534,5.83534,0,0,1,498.96105,804.915Z" transform="translate(-173 -389)"/><path class="cls-13" d="M509.27539,797.83017l50.4823,14.68553a14.72847,14.72847,0,0,0,3.21975.51535c2.60849.15989,9.58334,2.55816,19.53527,20.905,12.79533,23.58875,17.71662,46.715,20.66939,71.69131s-.98426,47.64-3.937,64.75344-1.96851,12.48816-4.92128,30.98914c-2.21886,13.90257-15.55346,17.8804-22.045,18.99893a14.12828,14.12828,0,0,1-6.31312-.36891c-36.46764-10.56669-43.65932-15.72056-50.38239-10.30457-4.89856,3.94619-11.7873-4.03182-15.36-8.97292a12.127,12.127,0,0,1-2.33221-7.1977l.91083-137.3945a12.53041,12.53041,0,0,0-6.78128-11.06167l-8.003-4.298c-6.846-3.6767-8.878-12.072-4.39788-18.17021l14.60051-19.87357A13.92348,13.92348,0,0,1,509.27539,797.83017Z" transform="translate(-173 -389)"/><path class="cls-2" d="M809.21982,808.65135s1.64042-4.3169,8.85831.30835,7.546,4.31689,7.87405,9.25049-.98426,7.40039-4.26511,11.40894-14.76385,8.63379-24.9345,13.259l-10.17066,4.62525" transform="translate(-173 -389)"/><path class="cls-2" d="M824.63984,822.83543s1.64042-4.31689,8.85831.30835,7.546,4.3169,7.87405,9.25049-.98426,7.4004-4.26511,11.40894-14.76385,8.63379-24.9345,13.259l-10.17066,4.62525" transform="translate(-173 -389)"/><path class="cls-2" d="M570.22393,895.80712c-.34551,88.25693,3.06283,82.56223-2.54016,96.34636s.87283,18.30964,8.91241,18.08535,7.37241,1.54342,10.65352-26.40774S570.22393,895.80712,570.22393,895.80712Z" transform="translate(-173 -389)"/><path class="cls-2" d="M552.44525,946.79785c-8.38268,54.41736-27.12049,51.1368-8.38268,54.41736s12.05761-3.545,16.06081-15.97389S552.44525,946.79785,552.44525,946.79785Z" transform="translate(-173 -389)"/><path class="cls-1" d="M691.76519,840.41137l53.478-8.94215L798.393,811.42649l8.20214,6.47535s20.34131-2.15845-2.2966,8.94214-64.96093,15.41748-64.96093,15.41748Z" transform="translate(-173 -389)"/><path class="cls-1" d="M630.43478,889.56144l59.49328-7.0295,60.54513-21.87524,8.12812,9.39481s22.47149-1.015-3.64188,11.72418S682.113,896.39436,682.113,896.39436Z" transform="translate(-173 -389)"/><path class="cls-2" d="M496.22423,808.98757c66.48125,23.93836,58.67456,40.2959,66.48125,23.93836s-2.05843-12.20807-16.83033-19.6076S496.22423,808.98757,496.22423,808.98757Z" transform="translate(-173 -389)"/><path class="cls-1" d="M541.88677,501.861c-17.85838-1.54924-55.37521,11.24167,54.29855,20.756s178.76381,52.44882,180.40794,35.95314-2.21815-80.7476-111.89191-90.26193S829.74266,526.83281,541.88677,501.861Z" transform="translate(-173 -389)"/><path class="cls-1" d="M382.53315,68.01381h172.229a43.42669,43.42669,0,0,1,43.42669,43.42669v.00009a43.42669,43.42669,0,0,1-43.42669,43.42669h-172.229a43.42668,43.42668,0,0,1-43.42668-43.42668v-.00009a43.42669,43.42669,0,0,1,43.42669-43.42669Z"/><path class="cls-2" d="M733.22215,501.289c17.74444-2.43535,55.9389,8.47119-53.0351,23.42743S504.675,585.98279,502.09045,569.59236s-2.39975-80.74307,106.57425-95.69931S447.20286,540.544,733.22215,501.289Z" transform="translate(-173 -389)"/><path class="cls-2" d="M741.5002,458.3988c7.54312,4.60875,15.40664,24.29977-30.918-4.00395s-93.88627-23.09078-86.30276-33.89383,41.01513-49.6767,87.33976-21.373S619.914,384.11126,741.5002,458.3988Z" transform="translate(-173 -389)"/><path class="cls-2" d="M547.35416,459.54823c54.96206-.51458,27.5383.15871,60.73549-2.53442s62.786-.67329,23.09369-4.0397-66.27985-11.96039-75.05451-2.69313" transform="translate(-173 -389)"/><path class="cls-14" d="M691.44346,458.36037" transform="translate(-173 -389)"/><ellipse class="cls-15" cx="560.90994" cy="710.25223" rx="8.35602" ry="35.34999" transform="translate(-418.7505 731.59004) rotate(-78.66253)"/><ellipse class="cls-15" cx="736.27771" cy="707.9799" rx="35.34999" ry="8.35602" transform="translate(-297.81248 -230.4417) rotate(-11.33747)"/><rect class="cls-16" width="950" height="950"/></svg>