<svg id="Layer_1" data-name="Layer 1" xmlns="http://www.w3.org/2000/svg" viewBox="0 0 500 500"><defs><style>.cls-1{fill:#b5cbbb;}.cls-12,.cls-2{fill:#c7ca99;}.cls-3{fill:#4d6e56;}.cls-4{fill:#9cb9a4;}.cls-5,.cls-6{fill:#534741;}.cls-5{stroke:#534741;stroke-miterlimit:10;}.cls-10,.cls-11,.cls-13,.cls-7,.cls-9{fill:#7ba285;}.cls-8{fill:#618a6c;}.cls-9{opacity:0.7;}.cls-10,.cls-12{opacity:0.6;}.cls-11{opacity:0.5;}.cls-13{opacity:0.8;}.cls-14{fill:#fff;}.cls-15{fill:none;}</style></defs><path class="cls-1" d="M515.14185,639.33067c68.00254-77.72567-5.60878-27.00045-16.00633-18.98131-17.42291,13.43747-44.20542,39.42875-45.98613,47.60029s20.33454-12.17837,39.53761-18.00853C503.8237,646.56,510.25664,644.91437,515.14185,639.33067Z" transform="translate(-390 -262)"/><path class="cls-1" d="M560.25509,604.26741c-29.877,23.75188,16.42127,26.23721-30.47609,72.70213-83.07454,82.3085,47.84114,10.44083,77.71816-13.31105s7.1369-123.11282-5.90864-139.51321S590.1321,580.51552,560.25509,604.26741Z" transform="translate(-390 -262)"/><path class="cls-1" d="M526.63206,600.0527C504.573,631.19629,499.51264,585.12323,455.71621,634.52c-77.58152,87.502-13.092-47.17,8.967-78.31361s122.56428-13.979,139.671-1.87116S548.6911,568.90911,526.63206,600.0527Z" transform="translate(-390 -262)"/><path class="cls-1" d="M720.52642,561.69283c-14.92285,37.68248,32.42269,16.80393,14.65867,84.72026-31.46739,120.30778,53.77623-14.0576,68.69907-51.74008s-68.828-121.13039-91.84665-130.23762S735.44927,524.01034,720.52642,561.69283Z" transform="translate(-390 -262)"/><path class="cls-1" d="M591.27456,378.79161C562.86943,399.866,573.2205,359.8837,520.7661,391.252c-92.91834,55.56609,3.95049-42.78227,32.35562-63.85661s107.41014,16.859,117.94575,31.05165S619.6797,357.71727,591.27456,378.79161Z" transform="translate(-390 -262)"/><path class="cls-2" d="M739.483,382.76313c-47.45291,55.446,48.29747,58.19634,70.13018.51075,9.88957-26.12983,77.53664-28.54042,39.52085-57.92352-20.29191-15.684-39.85089-16.36486-70.13019-.51076S751.32967,368.921,739.483,382.76313Z" transform="translate(-390 -262)"/><path class="cls-1" d="M737.78445,372.87212c-51.03874,52.16625,44.31531,61.28138,69.94,5.17582,11.60722-25.41412,79.26416-23.3184,43.2893-55.16606-19.20251-16.9995-38.67261-18.98024-69.94-5.17582S750.52635,359.84875,737.78445,372.87212Z" transform="translate(-390 -262)"/><path class="cls-3" d="M786.842,455.16849a13.55568,13.55568,0,0,1,6.48664,15.42274c-12.52192,43.99226-53.28705,87.91315-110.99913,113.39278-213.9056,94.43837-209.70764,92.585-202.3846-38.34486,3.55986-63.59649,23.50553-124.56253,107.98834-175.38473,42.74339-25.71637,89.91555-29.91923,128.62122-19.33854a13.19521,13.19521,0,0,1,9.43693,11.298,122.467,122.467,0,0,0,9.80555,36.45073A119.15669,119.15669,0,0,0,786.842,455.16849Z" transform="translate(-390 -262)"/><path class="cls-4" d="M770.73194,454.11039a15.57687,15.57687,0,0,1,7.18757,18.75066c-13.51935,37.96084-51.06314,75.86248-102.8945,98.7458-198.40056,87.593-194.50689,85.87393-185.351-30.21372,4.44989-56.38725,23.91527-110.74814,102.52462-157.31971,38.4468-22.78033,80.32627-27.8331,115.04162-20.32679a15.6233,15.6233,0,0,1,12.30987,13.34345,102.30652,102.30652,0,0,0,8.06,29.40767A101.00339,101.00339,0,0,0,770.73194,454.11039Z" transform="translate(-390 -262)"/><path class="cls-5" d="M856.22281,341.90408c-.03666.84785-3.69253,2.91066-3.03514,1.40732.66012-1.5096-.03919-1.277-2.90241-1.663-.84127-.11342,1.39554-1.47793,3.03514-1.40732S856.25946,341.05623,856.22281,341.90408Z" transform="translate(-390 -262)"/><path class="cls-6" d="M847.50494,352.159c-5.15231,3.28781-13.504,6.1055-20.668,9.689l.41853.68095c8.39206-4.1822,18.3833-7.31582,22.92845-11.41319Z" transform="translate(-390 -262)"/><path class="cls-7" d="M763.66379,539.43478c3.24852,7.35522,10.67158,3.4095,9.6073.99979-1.72878-3.91425,8.40208-4.89519,5.25048-9.09355-2.06387-2.74936-5.97606-4.13708-10.25884-2.24625C761.59372,532.03911,762.28077,536.30338,763.66379,539.43478Z" transform="translate(-390 -262)"/><path class="cls-7" d="M740.16962,388.86306c6.45895,1.07988,11.61726-11.73469,9.50119-12.08847-3.43728-.57468-4.2122-1.20189-8.47168-.982-2.78938.144-4.01763,2.65234-6.06334,5.64384C731.35262,386.96871,737.4198,388.40332,740.16962,388.86306Z" transform="translate(-390 -262)"/><path class="cls-8" d="M491.09623,567.57161c-1.40171,29.43686,3.738,59.24012,9.97075,51.864,10.12428-11.98161,24.83058-16.484,34.79-32.60906,6.52206-10.55974-2.239-20.12294-11.65949-27.7767C507.70036,545.64658,492.24335,543.48155,491.09623,567.57161Z" transform="translate(-390 -262)"/><path class="cls-8" d="M562.0646,616.66775c-28.01,10.42417-53.6269,19.15572-48.72061,10.68419,7.96962-13.76085,12.08943-19.90294,22.99142-29.69363,11.7576-10.55908,13.20722-14.758,24.54959-14.31258C605.7047,585.10581,579.54325,610.16291,562.0646,616.66775Z" transform="translate(-390 -262)"/><path class="cls-8" d="M632.93863,586.65146c25.6759-18.12487,6.50136-69.99232-1.91056-64.05427-13.664,9.64558-18.18829,10.45956-32.41665,24.96059-9.31765,9.49621-6.32722,20.362-4.78809,35.2163C596.66967,610.24453,622.0074,594.36792,632.93863,586.65146Z" transform="translate(-390 -262)"/><path class="cls-8" d="M695.1688,552.81824c24.4927-22.39025-.29728-71.80046-8.32156-64.465-13.03436,11.91549-17.58661,13.45457-30.7164,30.36888-8.59824,11.07659-4.45612,21.59-1.40389,36.36614C660.3715,582.41406,684.7413,562.35063,695.1688,552.81824Z" transform="translate(-390 -262)"/><path class="cls-8" d="M640.90712,370.44582c31.20944-23.8662,84.81045,16.851,74.58564,24.67-16.60883,12.701-19.30979,17.73936-41.84569,29.40467-14.758,7.63921-26.38252.31708-43.25666-6.69361C599.18471,404.86188,627.62005,380.60659,640.90712,370.44582Z" transform="translate(-390 -262)"/><path class="cls-8" d="M564.10492,417.9519c32.54864-23.88361,78.34686,7.54346,67.68331,15.36819-17.32152,12.71021-20.506,17.41318-43.32041,29.72213-14.94038,8.06071-25.0592,2.5824-40.195-2.16186C520.28179,452.1067,550.24771,428.12007,564.10492,417.9519Z" transform="translate(-390 -262)"/><path class="cls-8" d="M508.40049,496.01823c22.03582-35.29776,78.34885-22.42278,71.1295-10.85856-11.72688,18.78453-12.962,24.51357-30.13226,44.99288-11.24422,13.41119-23.116,11.97571-39.5313,13.14656C479.50928,545.46439,499.019,511.04586,508.40049,496.01823Z" transform="translate(-390 -262)"/><path class="cls-8" d="M751.73716,507.27571c22.71148-24.194-5.78-71.56743-13.22071-63.641C726.43,456.51013,722.00854,458.39215,710.20872,476.259c-7.72729,11.70039-2.79428,21.86688,1.37756,36.36675C719.30136,539.44071,742.068,517.57605,751.73716,507.27571Z" transform="translate(-390 -262)"/><path class="cls-8" d="M569.70364,525.92231c-24.7202.81151-34.37788,48.84073-26.27908,48.57487,13.15544-.43187,16.48818,1.19477,32.10316-2.56933,10.2257-2.465,12.92563-12.02027,18.29719-23.82562C603.75864,526.27035,580.228,525.57682,569.70364,525.92231Z" transform="translate(-390 -262)"/><path class="cls-8" d="M622.72819,467.55322c-24.7202.81151-34.37789,48.84073-26.27908,48.57487,13.15543-.43187,16.48818,1.19477,32.10315-2.56933,10.22571-2.465,12.92563-12.02027,18.29719-23.82562C656.78319,467.90126,633.25253,467.20773,622.72819,467.55322Z" transform="translate(-390 -262)"/><path class="cls-8" d="M684.71017,426.29584c-24.7202.81151-34.37789,48.84073-26.27908,48.57486,13.15543-.43186,16.48818,1.19478,32.10315-2.56932,10.22571-2.465,12.92563-12.02028,18.29719-23.82562C718.76517,426.64388,695.23451,425.95035,684.71017,426.29584Z" transform="translate(-390 -262)"/><path class="cls-7" d="M758.66366,350.81206c4.36977.73058,8.03389-8.98,6.60227-9.21936-2.32547-.3888-2.84339-.851-5.737-.63129-1.89493.14389-2.76047,2.04743-4.187,4.325C752.70391,349.49846,756.80328,350.501,758.66366,350.81206Z" transform="translate(-390 -262)"/><path class="cls-7" d="M761.04579,355.27429c-5.45416-5.90881-11.20155.22516-9.41467,2.161,2.90256,3.14451-6.36657,7.349-2.02569,10.30215,2.84269,1.93394,6.99376,1.98179,10.43456-1.19232C765.39791,361.60249,763.36784,357.7899,761.04579,355.27429Z" transform="translate(-390 -262)"/><path class="cls-9" d="M822.05121,324.06707c5.74509,2.77776,13.99845-7.63034,12.11625-8.54039-3.05738-1.47826-3.61329-2.27095-7.65177-3.24233-2.64466-.63612-4.46437,1.34091-7.1773,3.53861C814.3213,319.88722,819.60531,322.88446,822.05121,324.06707Z" transform="translate(-390 -262)"/><path class="cls-7" d="M777.05217,571.76617c5.12737.85724,8.55548-5.33324,6.87566-5.61409a34.82,34.82,0,0,0-6.704-.906c-2.18457-.06339-3.02731,1.13769-4.48876,2.54187C770.0324,570.38471,774.86925,571.4012,777.05217,571.76617Z" transform="translate(-390 -262)"/><path class="cls-7" d="M807.52593,321.49873c4.36977.73059,8.0339-8.98,6.60228-9.21936-2.32548-.38879-2.8434-.851-5.737-.63128-1.89492.14389-2.76047,2.04742-4.187,4.325C801.56619,320.18513,805.66555,321.18769,807.52593,321.49873Z" transform="translate(-390 -262)"/><path class="cls-10" d="M789.46617,324.38484c4.36977.73059,8.03389-8.98,6.60227-9.21935-2.32548-.3888-2.8434-.851-5.737-.63129-1.89492.14389-2.76046,2.04743-4.187,4.325C783.50642,323.07124,787.60579,324.07381,789.46617,324.38484Z" transform="translate(-390 -262)"/><path class="cls-7" d="M774.64267,336.1711c7.37879-3.03188,6.85613-13.8246,4.4387-12.83131-3.9268,1.61349-5.0455,1.67264-9.47438,4.24256-2.90032,1.683-3.03056,3.92048-3.80392,6.92113C764.37288,340.05264,771.50123,337.46188,774.64267,336.1711Z" transform="translate(-390 -262)"/><path class="cls-10" d="M782.73668,354.19909c12.45641-5.11821,11.85713-22.64922,7.77617-20.9724-6.629,2.72378-8.5072,2.84869-16.003,7.14014-4.90877,2.81033-5.18478,6.451-6.5593,11.34863C765.40855,360.77283,777.4335,356.37812,782.73668,354.19909Z" transform="translate(-390 -262)"/><path class="cls-11" d="M807.94788,334.99207c6.01231,1.00521,10.42173-8.58078,8.452-8.9101-3.1996-.53494-3.9352-1.03354-7.87341-.98847-2.579.02952-3.64449,1.89962-5.45315,4.11333C799.72851,333.30069,805.3882,334.56412,807.94788,334.99207Z" transform="translate(-390 -262)"/><path class="cls-12" d="M801.31118,354.44931c7.96054,8.34972,26.73823-2.3115,24.13021-5.047-4.23639-4.4435-4.73954-6.07581-10.83568-10.40122-3.99216-2.83256-7.97025-.982-13.51875.59724C790.826,342.51877,797.92207,350.89451,801.31118,354.44931Z" transform="translate(-390 -262)"/><path class="cls-13" d="M763.66163,380.83245c6.459,1.07987,11.61726-11.73469,9.50119-12.08847-3.43728-.57468-4.21219-1.20189-8.47167-.982-2.78939.144-4.01763,2.65234-6.06335,5.64384C754.84463,378.9381,760.91181,380.37271,763.66163,380.83245Z" transform="translate(-390 -262)"/><path class="cls-6" d="M815.918,344.16343c2.85067,1.44569-1.28331,12.3754-4.81731,8.86133-7.07194-7.032-7.36268-4.1024-9.79534-2.40992-2.4305,1.691-5.0654-7.18177,4.81729-8.8613C810.50433,341.0089,809.52109,340.91927,815.918,344.16343Z" transform="translate(-390 -262)"/><path class="cls-6" d="M817.91976,345.08183c2.85067,1.4457-.78213,7.0798-4.8173,8.86131s-8.42071.70257-9.79536-2.40988-5.06539-7.18178,4.8173-8.86131C812.50606,341.9273,811.52282,341.83767,817.91976,345.08183Z" transform="translate(-390 -262)"/><path class="cls-14" d="M809.90634,348.69735c-.43434-.99182-.21348-4.5047,1.71294-2.88681,1.23574,1.03782,2.85148-.28694,3.28582.70488s-.33257,2.28429-1.71294,2.88681S810.34068,349.68917,809.90634,348.69735Z" transform="translate(-390 -262)"/><path class="cls-7" d="M490.87454,397.72189c2.96147.49513,5.84267-8.46277,4.87244-8.625-1.576-.26349-1.91254-.66322-3.9007-.35233-1.302.20359-1.96754,1.96525-3.0313,4.08813C486.84775,396.75861,489.61373,397.51109,490.87454,397.72189Z" transform="translate(-390 -262)"/><path class="cls-10" d="M622.24179,333.68227c-12.79036-4.21158-23.74176,9.49547-19.5514,10.87526,6.80669,2.2413,8.31441,3.36771,16.79947,4.98179,5.55656,1.057,8.135-1.52911,12.36552-4.35584C639.67906,339.95594,627.68714,335.47531,622.24179,333.68227Z" transform="translate(-390 -262)"/><path class="cls-13" d="M501.98737,390.39328c6.459,1.07988,11.61726-11.73468,9.50119-12.08847-3.43728-.57468-4.21219-1.20189-8.47167-.982-2.78939.144-4.01763,2.65234-6.06334,5.64384C493.17037,388.49893,499.23755,389.93354,501.98737,390.39328Z" transform="translate(-390 -262)"/><path class="cls-7" d="M770.64883,643.31305c6.459,1.07987,11.61726-11.73469,9.50119-12.08848-3.43728-.57468-4.21219-1.20188-8.47167-.982-2.78939.144-4.01763,2.65235-6.06334,5.64385C761.83183,641.4187,767.899,642.8533,770.64883,643.31305Z" transform="translate(-390 -262)"/><path class="cls-10" d="M614.73978,637.72423c10.01506-9.00165,3.56286-25.31312.28174-22.364-5.32975,4.79044-7.0571,5.53849-12.677,12.09648-3.68025,4.2946-2.71757,7.81638-2.36753,12.89087C600.62438,649.73194,610.476,641.55658,614.73978,637.72423Z" transform="translate(-390 -262)"/><path class="cls-13" d="M779.94431,559.55984c6.459,1.07988,11.61727-11.73468,9.50119-12.08847-3.43728-.57468-4.21219-1.20189-8.47167-.982-2.78939.144-4.01763,2.65234-6.06334,5.64384C771.12731,557.66549,777.19449,559.1001,779.94431,559.55984Z" transform="translate(-390 -262)"/><path class="cls-7" d="M783.91745,624.49714c6.249-1.95916,5.04812-15.71925,3.00084-15.07739-3.32553,1.04261-4.30053.83393-7.9996,2.957-2.42239,1.39035-2.38224,4.18263-2.85238,7.77557C775.19686,626.79685,781.257,625.33123,783.91745,624.49714Z" transform="translate(-390 -262)"/><path class="cls-10" d="M795.758,584.17148c8.7917-10.19914.32111-25.56-2.55922-22.21857-4.6787,5.42771-6.29717,6.38881-11.03929,13.60656-3.10544,4.72665-1.7035,8.09778-.71217,13.08676C783.28063,597.87246,792.01507,588.51365,795.758,584.17148Z" transform="translate(-390 -262)"/><path class="cls-13" d="M793.62276,604.61858c6.249-1.95917,5.04811-15.71925,3.00083-15.0774-3.32553,1.04262-4.30053.83393-7.9996,2.957-2.42239,1.39035-2.38224,4.18262-2.85238,7.77556C784.90216,606.91829,790.96233,605.45267,793.62276,604.61858Z" transform="translate(-390 -262)"/><path class="cls-7" d="M572.077,684.65939c5.12737.85725,8.55549-5.33324,6.87566-5.61409a34.81984,34.81984,0,0,0-6.704-.906c-2.18457-.06339-3.0273,1.1377-4.48876,2.54187C565.05726,683.27793,569.89411,684.29443,572.077,684.65939Z" transform="translate(-390 -262)"/><path class="cls-7" d="M602.82026,659.89908c6.45894,1.07987,11.61726-11.73469,9.50118-12.08848-3.43728-.57468-4.21219-1.20188-8.47167-.982-2.78939.144-4.01763,2.65234-6.06334,5.64385C594.00325,658.00472,600.07043,659.43933,602.82026,659.89908Z" transform="translate(-390 -262)"/><path class="cls-13" d="M585.94636,674.24841c6.45895,1.07987,11.61726-11.73469,9.50119-12.08848-3.43728-.57468-4.2122-1.20188-8.47168-.982-2.78938.144-4.01763,2.65235-6.06334,5.64385C577.12935,672.35406,583.19653,673.78866,585.94636,674.24841Z" transform="translate(-390 -262)"/><path class="cls-10" d="M458.80439,570.3769c2.95464-13.135,20.34307-15.48951,19.37507-11.18622-1.57238,6.9901-1.38,8.862-4.3527,16.96972-1.9467,5.30947-5.49045,6.19306-10.08925,8.37035C455.23283,588.55727,457.54649,575.969,458.80439,570.3769Z" transform="translate(-390 -262)"/><path class="cls-7" d="M435.92963,624.206c-3.25629-4.05079.46793-10.06792,1.53476-8.7408a34.795,34.795,0,0,1,4.07013,5.40145c1.124,1.87355.48832,3.19584-.02189,5.1569C440.56908,629.6502,437.316,625.93059,435.92963,624.206Z" transform="translate(-390 -262)"/><path class="cls-7" d="M449.81125,599.47986c-4.102-5.10278,4.55544-15.86888,5.89932-14.19711,2.183,2.71557,3.10929,3.08432,5.00118,6.90542,1.23892,2.50231-.34876,4.80021-1.95811,8.04716C455.77743,606.24,451.55761,601.65231,449.81125,599.47986Z" transform="translate(-390 -262)"/><path class="cls-13" d="M441.26818,613.90389c-4.102-5.10278,4.55545-15.86888,5.89933-14.19711,2.183,2.71556,3.10929,3.08432,5.00117,6.90542,1.23893,2.5023-.34876,4.8002-1.95811,8.04716C447.23436,620.664,443.01454,616.07634,441.26818,613.90389Z" transform="translate(-390 -262)"/><path class="cls-10" d="M597.48458,327.19069c-7.90872-2.60416-15.20877,7.47455-12.61772,8.32773,4.20881,1.38586,5.12186,2.1407,10.40447,3.02949,3.4594.582,5.15855-1.33514,7.90325-3.47375C608.25041,331.11918,600.85163,328.29939,597.48458,327.19069Z" transform="translate(-390 -262)"/><path class="cls-10" d="M516.39805,363.19491c-6.99137,4.52286-3.72167,16.52792-1.43116,15.04615,3.72062-2.40695,4.88154-2.64419,8.88881-6.19885,2.62421-2.32782,2.19712-4.85316,2.25364-8.3313C526.21387,357.27871,519.37454,361.26935,516.39805,363.19491Z" transform="translate(-390 -262)"/><path class="cls-10" d="M573.64259,324.87255c-8.19051,1.50235-9.76824,13.84474-7.08487,13.35254,4.35877-.79951,5.522-.57432,10.58518-2.32442,3.31568-1.14608,3.88839-3.64259,5.27277-6.83423C584.97584,323.16408,577.12961,324.23294,573.64259,324.87255Z" transform="translate(-390 -262)"/><path class="cls-10" d="M543.24744,359.76888c11.93651-6.23483,9.73695-23.63749,5.82632-21.59484-6.35229,3.318-8.21126,3.614-15.28349,8.57232-4.63135,3.247-4.57336,6.89759-5.49438,11.90029C526.59263,367.89825,538.16561,362.4233,543.24744,359.76888Z" transform="translate(-390 -262)"/><path class="cls-7" d="M558.73353,336.246c2.70953.453,5.15546-6.60705,4.26776-6.75547a8.91353,8.91353,0,0,0-3.56282-.35844c-1.18274.13559-1.75394,1.522-2.68085,3.18749C555.04346,335.39957,557.58,336.05314,558.73353,336.246Z" transform="translate(-390 -262)"/><path class="cls-7" d="M558.81366,346.76515c2.70953.453,5.15546-6.60705,4.26777-6.75546a8.91358,8.91358,0,0,0-3.56283-.35844c-1.18273.13558-1.75394,1.522-2.68085,3.18749C555.12359,345.91872,557.66011,346.57229,558.81366,346.76515Z" transform="translate(-390 -262)"/><path class="cls-7" d="M751.2726,409.15779c9.43518,1.57748,16.96191-17.09118,13.87077-17.608-5.02116-.83949-6.15346-1.75386-12.3751-1.43607-4.07433.20812-5.86686,3.86219-8.85314,8.21978C738.39252,406.3921,747.25567,408.4862,751.2726,409.15779Z" transform="translate(-390 -262)"/><path class="cls-7" d="M466.70432,594.59612c2.8798.48147,5.64461-8.00882,4.70114-8.16656-1.53255-.25623-1.86114-.63691-3.792-.34962-1.26442.18813-1.9043,1.85744-2.92972,3.868C462.78744,593.66618,465.47828,594.39114,466.70432,594.59612Z" transform="translate(-390 -262)"/><rect class="cls-15" width="500" height="500"/></svg>