<svg id="Layer_1" data-name="Layer 1" xmlns="http://www.w3.org/2000/svg" viewBox="0 0 700 700"><defs><style>.cls-1{fill:#0075aa;}.cls-2{fill:#0098bc;}.cls-3,.cls-4{fill:#fff;}.cls-3{opacity:0.2;}.cls-5,.cls-6{fill:none;}.cls-5{stroke:#000;stroke-miterlimit:10;}</style></defs><path class="cls-1" d="M717.24635,682.426c-177.099,125.04,33.24607,31.77214,68.83606,24.79525s67.32451-58.26022,64.89739-78.93114-45.20887-21.07577-73.68677,4.07511C734.01825,670.58425,734.01825,670.58425,717.24635,682.426Z" transform="translate(-290 -162)"/><path class="cls-1" d="M513.84645,487.16765c-12.23709,25.63922-45.44588,27.97218-78.92571,17.82159C221.476,440.27591,309.45163,480.55029,400.30945,429.963c24.53518-13.66056,56.75493-29.4158,78.92571-17.82159C523.269,435.16891,526.08354,461.52843,513.84645,487.16765Z" transform="translate(-290 -162)"/><path class="cls-1" d="M461.0965,506.71735c-24.36022-8.91647-28.12166-44.07369-20.32211-81.55553,49.72466-238.95883,16.61913-138.25028,67.89406-49.26611,13.84624,24.02922,30.00444,55.94047,20.32211,81.55552C509.76028,508.32582,485.45672,515.63383,461.0965,506.71735Z" transform="translate(-290 -162)"/><path class="cls-2" d="M758.88689,699.827c-42.63477-12.44034-76.34229-25.29231-103.03857-37.56774-.70558-.32289-1.40384-.65016-2.09847-.96986-54.14641-25.18685-78.8417-47.83921-90.73758-59.39112C289.42852,336.113,653.4198,492.04819,762.629,487.50167c105.8433-4.41045,136.69314-19.48232,190.63972,87.34524q2.445,4.81881,4.94552,9.98542l.28939.59805C1015.35127,702.8885,942.12514,753.29382,758.88689,699.827Z" transform="translate(-290 -162)"/><path class="cls-3" d="M758.88689,699.827c-42.63477-12.44034-76.34229-25.29231-103.03857-37.56774-.70558-.32289-1.40384-.65016-2.09847-.96986a40.7676,40.7676,0,0,1,26.21563-18.97248l278.24879-57.4846.28939.59805C1015.35127,702.8885,942.12514,753.29382,758.88689,699.827Z" transform="translate(-290 -162)"/><path class="cls-1" d="M557.15644,597.10972c-206.18873,26.40259,14.95586,45.5361,48.58815,56.81991s82.99434-19.84024,89.79213-39.9372-29.851-41.69614-65.17516-32.84033C576.68324,594.6093,576.68324,594.6093,557.15644,597.10972Z" transform="translate(-290 -162)"/><ellipse cx="828.14411" cy="573.30925" rx="8.46858" ry="7.74136" transform="translate(-278.30384 1001.15575) rotate(-70.54056)"/><ellipse class="cls-4" cx="827.37191" cy="570.52319" rx="5.12615" ry="4.68596" transform="translate(-276.19188 998.56975) rotate(-70.54056)"/><path class="cls-5" d="M869.98131,668.71431c75.34241,39.94176,96.21159,22.27539,96.21159,22.27539" transform="translate(-290 -162)"/><line class="cls-5" x1="577.07284" y1="512.57861" x2="582.63605" y2="501.69089"/><rect class="cls-6" width="700" height="700"/></svg>